<?xml version="1.0" encoding="iso-8859-1"?>
<!-- Uploaded to: SVG Repo, www.svgrepo.com, Generator: SVG Repo Mixer Tools -->
<svg version="1.1" id="Layer_1" xmlns="http://www.w3.org/2000/svg" xmlns:xlink="http://www.w3.org/1999/xlink" 
	 viewBox="0 0 512 512" xml:space="preserve">
<g>
	<path style="fill:#68AEF4;" d="M482.331,339.111c-26.505-26.505-64.045-35.241-97.83-26.218l-21.117-21.117l-71.616,39.781
		l103.037,63.253l50.391-13.248l61.506,61.506C518.567,407.763,510.452,367.23,482.331,339.111z"/>
	<path style="fill:#68AEF4;" d="M199.106,127.497c9.024-33.785,0.287-71.326-26.218-97.83C144.768,1.548,104.235-6.569,68.931,5.295
		l61.506,61.506l-13.248,50.391l26.218,66.002l132.467,132.467l39.784-71.612L199.106,127.497z"/>
</g>
<path style="fill:#3891E9;" d="M423.872,487.547l-42.338-42.338l13.273-50.399l-67.227-67.227l35.806-35.806l-47.726-47.726
	l-47.741,47.742L151.364,175.238l11.944-11.938l-46.118-46.107l-50.399,13.271L24.452,88.126L5.284,68.958
	c-11.848,35.289-3.739,75.813,24.38,103.933c26.505,26.505,64.045,35.241,97.83,26.218l185.396,185.396
	c-9.024,33.785-0.287,71.326,26.218,97.83c28.12,28.12,68.644,36.228,103.933,24.38L423.872,487.547z"/>
<path style="fill:#276AAD;" d="M181.208,157.337l-23.87,23.87c-3.296,3.296-8.64,3.296-11.936,0s-3.296-8.639,0-11.936l23.87-23.87
	c3.296-3.296,8.64-3.296,11.936,0C184.504,148.698,184.504,154.04,181.208,157.337z"/>
<polygon style="fill:#554F4E;" points="71.562,440.439 71.562,488.147 0,512 "/>
<polygon style="fill:#7F7774;" points="23.854,440.439 65.599,434.475 59.635,476.22 0,512 "/>
<polygon style="fill:#FFAB97;" points="131.197,404.657 143.125,464.292 71.562,488.147 59.635,476.22 "/>
<polygon style="fill:#FFCDC1;" points="47.708,368.877 145.86,366.14 119.27,440.439 59.635,476.22 23.854,440.439 "/>
<polygon style="fill:#F5AC51;" points="406.744,121.159 422.647,184.771 143.125,464.292 119.27,440.439 "/>
<path style="fill:#E26142;" d="M390.842,121.159l63.611,31.806l47.708-47.708c13.12-13.12,13.12-34.589,0-47.708l-23.854-23.854
	L390.842,121.159z"/>
<polygon style="fill:#FFEAB2;" points="47.708,368.877 95.417,416.585 133.584,407.042 413.105,127.52 327.231,89.354 "/>
<rect x="242.155" y="62.31" transform="matrix(0.7071 0.7071 -0.7071 0.7071 271.6105 -102.0766)" style="fill:#FFD159;" width="33.734" height="429.029"/>
<path style="fill:#F1866D;" d="M454.452,9.84l23.854,23.854c13.12,13.12,13.12,34.589,0,47.708l-63.611,63.611l-55.659-87.465
	l47.708-47.708C419.864-3.28,441.333-3.28,454.452,9.84z"/>
<rect x="409.752" y="134.454" transform="matrix(0.7071 0.7071 -0.7071 0.7071 235.9297 -255.6972)" style="fill:#D8D1D0;" width="33.734" height="44.979"/>
<rect x="328.315" y="86.756" transform="matrix(0.7071 0.7071 -0.7071 0.7071 188.2306 -235.9382)" style="fill:#FFFFFF;" width="101.206" height="44.979"/>
<path style="fill:#276AAD;" d="M336.761,369.071c-2.159,0-4.32-0.824-5.968-2.472c-3.296-3.296-3.296-8.639,0-11.935l23.87-23.87
	c3.297-3.296,8.64-3.296,11.936,0c3.296,3.296,3.296,8.64,0,11.935l-23.87,23.87C341.081,368.248,338.92,369.071,336.761,369.071z"
	/>
</svg>